<?xml version="1.0" standalone="no"?>
<!DOCTYPE svg PUBLIC "-//W3C//DTD SVG 20010904//EN"
 "http://www.w3.org/TR/2001/REC-SVG-20010904/DTD/svg10.dtd">
<svg xmlns="http://www.w3.org/2000/svg"
     width="260.000000pt" height="260.000000pt" viewBox="0 0 260.000000 260.000000"
     preserveAspectRatio="xMidYMid meet">
<metadata>
Created by potrace 1.11, written by Peter Selinger 2001-2013
</metadata>
<g transform="translate(0.000000,260.000000) scale(0.100000,-0.100000)"
fill="#000000" stroke="none">
<path d="M0 1300 l0 -1300 1300 0 1300 0 0 1300 0 1300 -1300 0 -1300 0 0
-1300z m1495 534 l184 -319 -36 -3 c-19 -2 -39 0 -43 5 -5 4 -70 116 -146 248
-75 132 -141 244 -144 248 -6 7 -173 -271 -310 -515 l-32 -58 379 0 379 0 17
-35 17 -35 -455 0 c-250 0 -455 3 -455 6 0 4 24 47 54 98 40 67 288 496 393
679 3 5 7 6 10 4 2 -3 87 -148 188 -323z m-585 -664 c0 -5 -4 -10 -10 -10 -5
0 -10 5 -10 10 0 6 5 10 10 10 6 0 10 -4 10 -10z m40 0 c0 -5 -4 -10 -10 -10
-5 0 -10 5 -10 10 0 6 5 10 10 10 6 0 10 -4 10 -10z m345 0 c3 -5 -1 -10 -9
-10 -9 0 -16 5 -16 10 0 6 4 10 9 10 6 0 13 -4 16 -10z m40 0 c3 -5 -1 -10 -9
-10 -9 0 -16 5 -16 10 0 6 4 10 9 10 6 0 13 -4 16 -10z m315 0 c0 -5 -4 -10
-10 -10 -5 0 -10 5 -10 10 0 6 5 10 10 10 6 0 10 -4 10 -10z m40 0 c0 -5 -4
-10 -10 -10 -5 0 -10 5 -10 10 0 6 5 10 10 10 6 0 10 -4 10 -10z m-739 -30
c17 0 49 -40 49 -60 0 -52 -98 -83 -142 -43 -46 42 8 125 70 107 8 -2 18 -4
23 -4z m-168 -14 c22 -17 22 -64 0 -88 -12 -13 -31 -18 -75 -18 l-58 0 0 60 0
60 58 0 c31 0 65 -7 75 -14z m336 -33 l40 -48 1 48 c0 26 5 47 10 47 6 0 10
-27 10 -60 0 -51 -3 -60 -17 -60 -10 1 -34 21 -53 45 -19 25 -38 45 -42 45 -5
0 -8 -20 -8 -45 0 -25 -4 -45 -10 -45 -6 0 -10 27 -10 60 0 52 2 60 19 60 10
0 37 -21 60 -47z m143 0 l3 -48 40 0 40 0 3 48 c2 33 7 47 18 47 19 0 19 -69
-2 -98 -19 -27 -93 -31 -118 -6 -21 21 -22 104 -2 104 11 0 16 -14 18 -47z
m275 31 c3 -8 -12 -10 -47 -6 -66 6 -66 -14 0 -23 56 -8 78 -30 57 -59 -10
-13 -25 -16 -67 -14 -67 4 -79 24 -13 23 66 0 69 18 5 28 -45 7 -52 12 -52 31
0 13 3 26 7 30 11 11 106 2 110 -10z m85 -31 l3 -48 40 0 40 0 3 48 c4 62 22
61 22 -1 0 -60 -12 -72 -70 -72 -25 0 -51 5 -58 12 -18 18 -16 108 2 108 11 0
16 -14 18 -47z m218 17 c12 -16 24 -30 28 -30 4 0 16 14 27 30 11 16 28 30 38
30 14 0 17 -10 17 -60 0 -33 -4 -60 -10 -60 -5 0 -10 21 -10 48 l0 47 -33 -39
-33 -38 -24 36 c-14 20 -28 36 -32 36 -5 0 -8 -20 -8 -45 0 -25 -4 -45 -10
-45 -6 0 -10 27 -10 60 0 53 2 60 19 60 11 0 29 -13 41 -30z m-340 -120 c0 -5
-7 -10 -15 -10 -8 0 -15 5 -15 10 0 6 7 10 15 10 8 0 15 -4 15 -10z m660 -180
c0 -5 -12 -10 -26 -10 -14 0 -23 4 -19 10 3 6 15 10 26 10 10 0 19 -4 19 -10z
m-1687 -47 c7 -38 2 -43 -44 -43 -38 0 -39 1 -39 35 0 34 1 35 39 35 34 0 39
-3 44 -27z m70 20 c-37 -5 -45 -22 -10 -24 l22 -2 -22 -4 c-34 -6 -28 -21 10
-26 31 -4 31 -4 -5 -5 -37 -2 -38 -1 -38 33 0 34 1 35 38 33 36 -1 36 -1 5 -5z
m87 -3 c-35 -7 -29 -15 15 -22 36 -6 23 -33 -17 -36 -21 -2 -38 1 -38 6 0 5
14 7 30 4 17 -2 30 0 30 6 0 6 -12 12 -27 14 -17 2 -29 10 -31 21 -3 14 3 17
35 16 l38 -2 -35 -7z m70 -19 c0 -25 5 -30 28 -34 22 -3 20 -4 -10 -6 -37 -1
-38 0 -38 34 0 19 5 35 10 35 6 0 10 -13 10 -29z m113 22 c-37 -5 -45 -22 -10
-24 l22 -2 -22 -4 c-34 -6 -28 -21 10 -26 28 -3 26 -4 -10 -5 -43 -2 -43 -2
-43 33 0 35 0 35 43 33 36 -1 38 -2 10 -5z m88 -19 l24 -26 6 29 c6 26 7 25 8
-9 1 -45 -7 -47 -40 -12 l-24 26 -6 -29 c-6 -26 -7 -25 -8 10 -1 44 7 46 40
11z m101 4 l15 -22 12 22 c19 35 41 28 41 -13 0 -19 -4 -35 -10 -35 -5 0 -10
12 -10 28 l0 27 -18 -23 -18 -24 -17 24 -16 23 0 -27 c-1 -41 -21 -34 -21 7 0
41 20 47 42 13z m131 15 c-37 -5 -45 -22 -10 -24 l22 -2 -22 -4 c-34 -6 -28
-21 10 -26 31 -4 31 -4 -5 -5 -37 -2 -38 -1 -38 33 0 34 1 35 38 33 36 -1 36
-1 5 -5z m155 -2 c8 -4 12 -19 10 -32 -2 -20 -9 -24 -45 -27 l-43 -3 0 35 c0
34 2 36 33 36 17 0 38 -4 45 -9z m93 -18 c7 -16 15 -30 16 -33 2 -3 -17 -5
-41 -5 l-43 0 15 33 c19 39 34 41 53 5z m78 1 l21 -27 0 27 c0 14 5 26 10 26
6 0 10 -16 10 -35 0 -43 -20 -46 -46 -7 l-18 27 -7 -30 c-6 -29 -7 -29 -8 8
-1 44 10 47 38 11z m81 -9 c0 -19 -4 -35 -10 -35 -5 0 -10 16 -10 35 0 19 5
35 10 35 6 0 10 -16 10 -35z m57 28 c-33 -5 -26 -23 9 -23 17 0 24 -5 24 -20
0 -16 -7 -20 -34 -20 -19 0 -37 4 -41 9 -3 6 9 7 30 4 23 -4 35 -2 35 6 0 6
-10 11 -22 11 -13 0 -29 4 -37 9 -22 14 -3 31 32 30 31 -2 31 -2 4 -6z m88
-10 c13 -17 14 -17 32 0 28 25 33 21 32 -20 -2 -32 -3 -34 -6 -10 -4 28 -5 28
-24 11 -18 -16 -20 -16 -38 0 -19 17 -20 17 -24 -11 -3 -24 -4 -22 -6 10 -1
40 13 49 34 20z m152 -16 l20 -32 -44 0 c-23 0 -43 1 -43 3 0 11 32 62 39 62
5 0 18 -15 28 -33z m77 6 l21 -27 6 29 c6 29 7 28 8 -7 1 -44 -10 -48 -37 -13
-25 32 -30 31 -35 -2 -3 -23 -4 -21 -6 10 -1 44 13 48 43 10z m109 -36 c31 -4
31 -4 -5 -5 -38 -2 -38 -2 -36 36 1 36 1 36 5 5 4 -27 9 -32 36 -36z m44 11
c-2 -13 -4 -5 -4 17 -1 22 1 32 4 23 2 -10 2 -28 0 -40z m103 43 c0 -5 -9 -7
-20 -4 -28 7 -54 -15 -39 -33 13 -16 49 -19 49 -5 0 5 -6 12 -12 14 -7 3 -3 6
10 6 17 1 23 -4 20 -16 -2 -13 -13 -18 -37 -18 -41 0 -62 25 -42 49 14 17 71
22 71 7z m50 -26 c0 -19 -4 -35 -10 -35 -5 0 -10 16 -10 35 0 19 5 35 10 35 6
0 10 -16 10 -35z"/>
<path d="M872 1108 c-31 -31 -2 -71 49 -66 39 4 59 30 43 56 -13 21 -74 28
-92 10z"/>
<path d="M680 1080 l0 -41 41 3 c49 3 71 27 53 56 -7 11 -26 18 -53 20 l-41 3
0 -41z"/>
<path d="M410 770 c0 -5 11 -10 25 -10 14 0 25 5 25 10 0 6 -11 10 -25 10 -14
0 -25 -4 -25 -10z"/>
<path d="M410 740 c0 -5 11 -10 25 -10 14 0 25 5 25 10 0 6 -11 10 -25 10 -14
0 -25 -4 -25 -10z"/>
<path d="M1230 755 c0 -20 5 -25 24 -25 25 0 36 15 29 38 -3 6 -16 12 -29 12
-19 0 -24 -5 -24 -25z"/>
<path d="M1345 760 c-3 -5 1 -10 10 -10 9 0 13 5 10 10 -3 6 -8 10 -10 10 -2
0 -7 -4 -10 -10z"/>
<path d="M1800 760 c0 -5 5 -10 10 -10 6 0 10 5 10 10 0 6 -4 10 -10 10 -5 0
-10 -4 -10 -10z"/>
</g>
</svg>
